<svg width="103" height="105" viewBox="0 0 103 105" fill="none" xmlns="http://www.w3.org/2000/svg">
<path d="M0 51.5C0 23.0573 23.0573 0 51.5 0C79.9427 0 103 23.3256 103 51.7682C103 80.5087 79.7012 104.079 50.9607 104.079H6C2.68629 104.079 0 101.392 0 98.0785V51.5Z" fill="#2F63C9"/>
<path fill-rule="evenodd" clip-rule="evenodd" d="M85.6537 35.502C85.9461 36.1274 86.905 36.0548 86.905 35.3644C86.905 27.9835 80.9216 22 73.5406 22C66.1596 22 60.1761 27.9835 60.1761 35.3644C60.1761 36.0548 61.135 36.1274 61.4274 35.502C63.5571 30.947 68.1803 27.7913 73.5406 27.7913C78.9009 27.7913 83.5241 30.947 85.6537 35.502ZM40.6601 35.502C40.9525 36.1274 41.9114 36.0549 41.9114 35.3644C41.9114 27.9835 35.9279 22 28.547 22C21.166 22 15.1825 27.9835 15.1825 35.3644C15.1825 36.0548 16.1414 36.1274 16.4338 35.502C18.5635 30.947 23.1867 27.7913 28.547 27.7913C33.9072 27.7913 38.5305 30.947 40.6601 35.502ZM15.0018 54.4568C15.0034 54.2972 15.1346 54.1697 15.2942 54.1713L86.8089 54.8827C86.9686 54.8843 87.0971 55.0143 87.0956 55.174C86.8975 75.0821 70.5983 91.0603 50.6901 90.8623C30.782 90.6642 14.8038 74.3649 15.0018 54.4568Z" fill="white"/>
</svg>
